<svg xmlns="http://www.w3.org/2000/svg" width="26" height="26" fill="none" viewBox="0 0 26 26"><path fill="#B0ABFF" d="M9.191 2.27c.563-.33 1.348.064 1.348.729v18.002c0 .665-.785 1.059-1.348.73L3.13 18.064c-.563-.33-.918-.946-.918-1.612V8.37c0-.666.355-1.282.918-1.612l6.061-3.5Z"/><path fill="#9D98FF" d="M22.87 7.758 16.81 4.204c-.563-.33-1.348.064-1.348.73v18.002c0 .665.785 1.059 1.348.73l6.06-3.554c.564-.33.918-.946.918-1.612V8.37c0-.666-.354-1.282-.918-1.612Z"/><path fill="#FFF" d="m15.462 4.934-6.061 3.554c-.563.33-.918.946-.918 1.612v6.061c0 .665.355 1.282.918 1.612l6.061 3.554c.563.33 1.348-.064 1.348-.729v-14.65c-.001-.666-.786-1.06-1.349-.73Z"/></svg>
